# xmcd CD database file
#
# Track frame offsets:
#	150
#	19892
#	45855
#	74130
#	91977
#	112727
#	143015
#	164400
#	190260
#
# Disc length: 2806 seconds
#
# Revision: 0
# Processed by: cddbd v1.5.1PL0 Copyright (c) Steve Scherf et al.
# Submitted via: CDex 1.50
#
DISCID=720af409
DTITLE=Super Trombone - Moonlight Serenade C.Basie and G/Miller
DYEAR=2004
DGENRE=Jazz
TTITLE0=Basie
TTITLE1=American Patrol
TTITLE2=Moonlight Serenade
TTITLE3=Lizzilu
TTITLE4=One O'clock Jump
TTITLE5=Tuxedo Janction
TTITLE6=Jumpin' At The Woodside
TTITLE7=In The Mood
TTITLE8=Little Brown Jug
EXTD=YEAR: 2004
EXTT0=
EXTT1=
EXTT2=
EXTT3=
EXTT4=
EXTT5=
EXTT6=
EXTT7=
EXTT8=
PLAYORDER=
